<?xml version="1.0" encoding="UTF-8" standalone="no"?>
<svg
   width="1366"
   height="451.6521"
   viewBox="0 0 1366 451.6521"
   version="1.1"
   xmlns="http://www.w3.org/2000/svg"
   xmlns:svg="http://www.w3.org/2000/svg">

   <style>
      #g14 > path {
         fill:#87decd00;
         stroke:#87decd;
         stroke-width:2;
         paint-order: markers fill stroke;
         stroke-dasharray: 0 50;

         animation: intro 1500ms cubic-bezier(.47,0,0.74,.71) forwards, jump 1500ms 1500ms linear infinite;
      }

       #g14 :nth-child(1)  { animation-delay: 1000ms, 5000ms; }
       #g14 :nth-child(2)  { animation-delay: 1000ms, 5200ms; }
       #g14 :nth-child(3)  { animation-delay: 1000ms, 5400ms; }
       #g14 :nth-child(4)  { animation-delay: 1000ms, 5600ms; }
       #g14 :nth-child(5)  { animation-delay: 1000ms, 5800ms; }
       #g14 :nth-child(6)  { animation-delay: 1000ms, 6000ms; }
       #g14 :nth-child(7)  { animation-delay: 1000ms, 6200ms; }
       #g14 :nth-child(8)  { animation-delay: 1000ms, 6400ms; }
       #g14 :nth-child(9)  { animation-delay: 1000ms, 6600ms; }
       #g14 :nth-child(10) { animation-delay: 1000ms, 6800ms; }

      @keyframes intro {
         0% {
            stroke-dasharray: 0 50;
            fill: #87decd00;
         }

         50% {
            fill: #87decd00;
            stroke-dasharray: 50 25;
         }

         100% {
            stroke-dasharray: 50 0;
            stroke-dasharray: 50 0;
            stroke-dashoffset: -400;
            fill: #87decdee;
         }
      }

      /* Keyframes for the squash and stretch jump animation */
      @keyframes jump {
         0%, 100% {
            transform: translateY(0);
         }
         25% {
            transform: translateY(-25px);
         }
         75% {
            transform: translateY(25px);
         }
      }
   </style>

  <g
     id="layer1"
     transform="translate(0,-158.17395)">
    <rect
       style="fill:#164150;fill-opacity:1;stroke-width:50;paint-order:markers fill stroke"
       id="rect1"
       width="1366"
       height="451.6521"
       x="0"
       y="158.17395" />
    <g id="g14">
      <path d="m 173.77615,377.91024 q 8.61823,0 12.32194,-3.20513 3.77493,-3.20513 3.77493,-10.54131 0,-7.26496 -3.77493,-10.39887 -3.70371,-3.1339 -12.32194,-3.1339 h -11.53847 v 27.27921 z m -11.53847,18.94588 V 437.0983 H 134.81602 V 330.75922 h 41.88035 q 21.01141,0 30.76925,7.05129 9.82906,7.05128 9.82906,22.29345 0,10.54132 -5.12821,17.3077 -5.05698,6.76639 -15.31339,9.97152 5.62678,1.28205 10.04274,5.84046 4.48718,4.48718 9.04558,13.67522 l 14.88605,30.19944 h -29.20229 l -12.96297,-26.42451 q -3.91738,-7.97722 -7.97721,-10.89744 -3.98861,-2.92023 -10.68376,-2.92023 z" id="text1" />      <path d="m 311.66794,417.72507 h -42.87751 l -6.76638,19.37323 h -27.56412 l 39.38748,-106.33908 h 32.69232 L 345.92721,437.0983 H 318.3631 Z m -36.0399,-19.72935 h 29.13106 l -14.52992,-42.30771 z" id="path6" />
      <path d="m 408.60531,348.70795 q -12.53562,0 -19.44445,9.25926 -6.90884,9.25926 -6.90884,26.06839 0,16.7379 6.90884,25.99716 6.90883,9.25926 19.44445,9.25926 12.60684,0 19.51568,-9.25926 6.90883,-9.25926 6.90883,-25.99716 0,-16.80913 -6.90883,-26.06839 -6.90884,-9.25926 -19.51568,-9.25926 z m 0,-19.8718 q 25.64104,0 40.17096,14.67237 14.52992,14.67237 14.52992,40.52708 0,25.78348 -14.52992,40.45585 -14.52992,14.67237 -40.17096,14.67237 -25.56981,0 -40.17096,-14.67237 -14.52992,-14.67237 -14.52992,-40.45585 0,-25.85471 14.52992,-40.52708 14.60115,-14.67237 40.17096,-14.67237 z" id="path7" />
      <path d="m 484.03269,330.75922 h 27.42166 v 63.74647 q 0,13.17664 4.27351,18.87465 4.34473,5.62678 14.10257,5.62678 9.82906,0 14.10257,-5.62678 4.34473,-5.69801 4.34473,-18.87465 v -63.74647 h 27.42166 v 63.74647 q 0,22.57835 -11.32479,33.61824 -11.32479,11.03989 -34.54417,11.03989 -23.14816,0 -34.47295,-11.03989 -11.32479,-11.03989 -11.32479,-33.61824 z" id="path8" />
      <path d="m 602.48002,330.75922 h 27.42166 v 85.61257 h 48.14817 v 20.72651 h -75.56983 z" id="path9" />
      <path d="m 820.21513,334.1068 v 22.50713 q -8.76068,-3.91738 -17.09402,-5.91168 -8.33334,-1.9943 -15.74075,-1.9943 -9.82906,0 -14.52992,2.70655 -4.70085,2.70656 -4.70085,8.40456 0,4.27351 3.1339,6.69516 3.20513,2.35043 11.53847,4.05983 l 11.68091,2.35043 q 17.73505,3.56126 25.21369,10.82622 7.47863,7.26496 7.47863,20.65528 0,17.5926 -10.47009,26.21083 -10.39886,8.54701 -31.83761,8.54701 -10.11397,0 -20.29916,-1.92307 -10.18519,-1.92308 -20.37038,-5.69801 v -23.14816 q 10.18519,5.41311 19.65813,8.19089 9.54416,2.70655 18.37608,2.70655 8.97436,0 13.74644,-2.99145 4.77208,-2.99146 4.77208,-8.54701 0,-4.98576 -3.27635,-7.69231 -3.20513,-2.70656 -12.89175,-4.84331 l -10.61254,-2.35043 q -15.95442,-3.4188 -23.36183,-10.89744 -7.33618,-7.47864 -7.33618,-20.1567 0,-15.8832 10.25641,-24.43021 10.25642,-8.54701 29.48719,-8.54701 8.76069,0 18.01995,1.35327 9.25927,1.28205 19.15955,3.91738 z" id="path10" />
      <path d="m 851.26932,330.75922 h 34.9003 l 24.21654,56.90886 24.35898,-56.90886 h 34.82907 V 437.0983 h -25.92593 v -77.77781 l -24.50144,57.3362 h -17.37892 l -24.50143,-57.3362 v 77.77781 h -25.99717 z" id="path11" />
      <path d="m 996.42606,330.75922 h 27.42164 V 437.0983 h -27.42164 z" id="path12" />
      <path d="m 1038.0215,330.75922 h 98.0057 v 20.72651 h -35.2564 v 85.61257 h -27.4217 v -85.61257 h -35.3276 z" id="path13" />
      <path d="m 1224.2039,334.1068 v 22.50713 q -8.7607,-3.91738 -17.094,-5.91168 -8.3334,-1.9943 -15.7408,-1.9943 -9.829,0 -14.5299,2.70655 -4.7008,2.70656 -4.7008,8.40456 0,4.27351 3.1339,6.69516 3.2051,2.35043 11.5384,4.05983 l 11.6809,2.35043 q 17.7351,3.56126 25.2137,10.82622 7.4787,7.26496 7.4787,20.65528 0,17.5926 -10.4701,26.21083 -10.3989,8.54701 -31.8376,8.54701 -10.114,0 -20.2992,-1.92307 -10.1852,-1.92308 -20.3704,-5.69801 v -23.14816 q 10.1852,5.41311 19.6582,8.19089 9.5441,2.70655 18.376,2.70655 8.9744,0 13.7465,-2.99145 4.7721,-2.99146 4.7721,-8.54701 0,-4.98576 -3.2764,-7.69231 -3.2051,-2.70656 -12.8917,-4.84331 l -10.6126,-2.35043 q -15.9544,-3.4188 -23.3618,-10.89744 -7.3362,-7.47864 -7.3362,-20.1567 0,-15.8832 10.2564,-24.43021 10.2564,-8.54701 29.4872,-8.54701 8.7607,0 18.02,1.35327 9.2592,1.28205 19.1595,3.91738 z" id="path14" />
    </g>
  </g>
</svg>
